<svg width="886" height="604" viewBox="0 0 886 604" fill="none" xmlns="http://www.w3.org/2000/svg">
<path d="M340.039 0.274345C254.932 3.56623 195.474 14.905 134.85 39.777C62.5673 69.7697 54.0177 79.2796 51.2974 132.681C48.5771 187.18 57.9039 214.613 99.8744 275.33C111.533 292.155 119.694 307.151 117.751 308.614C116.196 310.077 106.481 313.735 96.3769 317.393C46.634 334.584 0 395.666 0 443.216C0.388617 467.356 11.2699 487.473 38.0844 512.711C66.4534 539.412 105.315 558.066 159.333 570.502C327.215 609.639 496.652 614.76 615.18 584.401C673.861 569.405 755.47 527.708 781.508 499.544C797.052 483.084 811.043 454.92 816.095 429.683C823.867 391.643 803.659 348.483 769.849 330.926L752.362 321.782L765.575 312.638C811.431 279.719 867.392 218.27 880.216 186.815C889.543 164.137 887.211 122.806 875.942 108.541C854.956 82.2057 826.199 75.9877 786.948 88.7895C774.513 93.1787 763.631 96.4706 762.854 96.4706C762.466 96.4706 758.191 89.521 753.139 81.4742C745.755 68.6724 738.371 63.5517 705.728 48.1896C653.264 23.3175 583.702 10.15 481.884 5.02929C442.246 3.20047 400.275 1.00588 388.617 0.274345C376.958 -0.0914199 355.195 -0.0914199 340.039 0.274345ZM468.283 12.3446C540.954 16.0022 636.165 29.5356 666.089 40.5085C692.903 50.7499 732.153 71.2328 739.537 78.9138C743.035 83.303 746.144 92.0814 746.144 99.7625C746.144 110.735 743.035 115.856 731.376 126.829C709.614 146.946 655.985 169.989 594.583 186.083C563.883 194.496 563.105 194.861 582.925 192.667C630.336 187.912 683.576 169.258 730.21 141.46L750.807 129.024L748.087 149.507C744.201 179.133 736.04 202.908 716.609 241.314C676.97 319.953 619.843 380.67 552.224 416.515C490.434 448.702 470.226 452.726 385.119 447.605C333.433 444.313 289.908 434.072 250.658 415.784C214.905 398.958 137.57 315.93 93.6566 247.166C71.5054 212.052 62.1786 180.231 62.5673 139.631C62.5673 117.319 63.3445 114.027 67.2307 119.88C85.4956 147.312 129.798 174.013 165.162 178.768C178.375 180.597 174.877 178.036 141.845 162.308C98.32 141.46 79.2778 125.366 75.3916 105.98C71.8941 86.5949 80.055 77.8166 119.305 58.7968C159.333 39.4112 203.635 26.6094 258.43 18.1968C324.883 8.32118 362.968 7.22388 468.283 12.3446ZM840.577 94.276C868.558 105.249 879.439 128.658 873.61 163.771C869.724 187.546 858.842 206.566 829.308 239.119C801.716 269.843 781.508 286.668 748.087 306.785C720.884 323.245 669.586 346.288 663.757 344.459C655.207 341.533 699.121 306.054 732.542 288.497C751.584 278.256 776.067 261.796 786.948 251.555C807.934 231.804 838.634 183.888 843.298 163.406C847.573 145.849 841.355 130.121 828.53 126.829C820.369 125 788.503 132.681 763.243 142.557C760.134 143.654 759.357 138.899 760.911 126.829C761.688 117.319 763.243 108.907 763.631 108.175C767.129 104.517 811.431 89.1553 819.204 89.1553C823.867 89.1553 833.582 91.3499 840.577 94.276ZM832.028 145.483C840.966 163.771 810.654 216.807 774.513 246.434C756.248 261.065 707.282 289.229 707.282 284.84C707.282 283.742 711.945 274.232 717.775 263.625C723.604 253.018 735.262 224.854 744.201 200.714L760.134 156.822L785.394 146.946C816.872 134.51 826.587 134.144 832.028 145.483ZM135.239 323.976C136.016 327.634 131.741 331.292 123.58 333.852C104.538 340.07 81.6095 356.164 75.3916 368.234C65.6762 385.791 71.5054 387.62 85.107 371.16C99.4858 354.335 129.798 337.876 146.508 337.876C156.612 337.876 155.835 338.607 137.57 350.312C126.689 357.261 116.585 365.674 115.03 368.966C112.699 375.549 113.865 375.184 137.959 359.821C158.556 347.02 167.882 349.58 153.115 363.845C145.343 371.526 143.788 374.452 148.452 374.452C151.949 374.452 156.612 371.892 159.333 368.966C162.053 366.039 166.328 363.479 168.66 363.479C170.991 363.479 184.981 374.818 199.36 388.717C213.739 402.616 231.615 416.515 238.999 419.807C250.658 425.293 252.601 427.854 252.601 438.461C252.601 454.92 261.15 460.041 308.95 471.38C377.735 487.839 483.05 482.719 528.13 460.407C535.902 456.749 540.954 450.897 543.286 442.85C545.618 434.072 552.224 427.488 570.1 416.515C582.925 408.468 601.967 395.301 612.071 387.62C636.165 368.966 686.685 348.117 696.012 352.872C705.339 357.627 707.282 356.895 704.95 350.677C701.453 342.63 713.5 339.704 723.993 345.922C728.656 348.848 736.04 352.506 740.314 353.969C746.532 356.164 745.755 354.335 736.817 345.557C727.101 336.047 726.324 334.218 731.765 332.023C742.646 328.366 764.409 337.51 778.399 352.14C805.602 380.304 809.877 419.441 790.446 458.578C772.181 494.423 746.144 514.906 670.752 550.751C645.103 562.821 591.863 576.72 538.234 584.767C423.981 602.324 195.085 577.452 103.761 537.949C70.7282 523.684 39.6389 498.446 24.4828 473.94C16.3219 460.773 14.7674 454.92 16.3219 437.364C19.8194 393.838 56.3494 346.654 101.818 326.903C127.855 315.564 133.295 315.198 135.239 323.976ZM314.779 446.874C347.035 454.92 359.47 456.018 413.877 456.383C465.174 456.383 481.107 454.92 504.424 448.702C530.85 441.387 538.234 442.119 527.741 450.531C525.021 452.726 507.922 457.846 489.657 462.601C425.924 478.329 308.562 471.014 273.197 449.434C262.316 442.85 260.762 430.78 271.254 434.803C274.752 436.266 294.571 441.387 314.779 446.874Z" fill="#2D1805"/>
<path d="M269.892 32.8796C217.818 39.8244 110.561 71.6242 104.732 81.8586C98.9031 92.093 100.069 108.176 107.064 117.679C119.5 134.493 161.858 148.017 251.239 162.637C289.712 168.851 312.251 170.313 389.585 169.948C543.864 169.217 649.955 154.231 679.101 128.279C691.148 118.045 704.361 93.5551 701.64 86.9758C695.422 71.9897 625.861 50.7898 553.579 42.0175C504.225 36.1692 296.318 29.5899 269.892 32.8796ZM471.582 47.5002C547.75 50.4243 611.871 59.9277 651.898 74.5483C682.21 85.5138 690.371 91.362 686.873 99.7689C686.484 101.596 673.66 98.3068 658.893 92.4586C632.856 82.2241 590.497 73.0862 590.497 78.2035C590.497 79.6655 604.876 84.4172 622.752 88.8034C640.24 93.1896 661.225 99.7689 668.997 103.058L683.376 109.272L675.603 118.045L668.22 126.817L645.68 117.314C600.601 98.6723 568.346 93.9206 440.882 88.4379C285.437 81.8586 225.202 84.7827 156.029 103.058C121.831 112.196 116.002 112.927 117.168 107.81C117.945 104.521 128.049 97.5758 139.707 92.093C151.366 86.6103 157.972 82.2241 154.086 82.2241C150.2 81.8586 140.096 85.1483 131.547 89.5344C122.608 93.5551 114.448 96.1137 113.282 94.6516C100.846 82.9552 215.098 49.6933 287.38 43.845C306.033 42.7485 378.704 43.845 471.582 47.5002Z" fill="#2D1805"/>
<path d="M381.5 164C529.539 164 611.5 151 658.5 130C642.027 125.234 623.608 109.987 567 103C525.777 97.9127 441.48 95.3797 381.5 93.0001C328.456 90.8956 281.364 93.8318 244.317 96.9953C181.948 102.321 150.5 109.5 126 120C130 132 167.161 141.159 221 149C260.514 154.756 318.839 164 381.5 164Z" fill="#833F00"/>
<path d="M570.226 266.21C564.775 277.664 569.837 285.794 579.961 282.098C587.749 279.142 588.138 266.949 580.35 261.037C575.678 257.342 573.731 258.45 570.226 266.21Z" fill="#2D1805"/>
<path d="M210.561 265.518C203.382 272.438 204.893 283 213.583 283C223.407 283 227.563 273.167 220.384 266.247C216.228 262.241 214.339 261.876 210.561 265.518Z" fill="#2D1805"/>
<path d="M369.354 312.312C386.481 298.933 395.433 298.933 419.566 311.227C439.028 321.351 448.759 320.99 439.417 310.142C432.411 302.91 398.936 287 389.984 287C382.588 287 346 314.12 346 319.905C346 326.052 355.731 322.798 369.354 312.312Z" fill="#2D1805"/>
<path d="M181.457 433.56C177.181 445.628 203.61 473.42 232.37 487.316C246.75 493.899 279.008 500.116 319.038 503.773C359.458 507.43 498.983 506.332 520.747 502.31C576.713 491.339 599.643 481.465 615.189 461.352C622.185 452.21 622.574 450.382 617.91 441.239L612.469 431L610.914 441.971C608.194 461.718 588.372 475.249 545.621 485.488C463.616 505.235 282.505 500.481 234.701 477.443C219.544 470.129 200.889 453.673 189.618 437.217C185.343 431.366 183.011 430.269 181.457 433.56Z" fill="#2D1805"/>
</svg>
